<svg width="32" height="32" viewBox="0 0 32 32" fill="none" xmlns="http://www.w3.org/2000/svg">
<g filter="url(#filter0_dd_10264_6956)">
<rect x="4" y="3" width="24" height="24" rx="12" fill="white"/>
<path fill-rule="evenodd" clip-rule="evenodd" d="M12 16.25C11.6685 16.25 11.3505 16.1183 11.1161 15.8839C10.8817 15.6495 10.75 15.3315 10.75 15C10.75 14.6685 10.8817 14.3505 11.1161 14.1161C11.3505 13.8817 11.6685 13.75 12 13.75C12.3315 13.75 12.6495 13.8817 12.8839 14.1161C13.1183 14.3505 13.25 14.6685 13.25 15C13.25 15.3315 13.1183 15.6495 12.8839 15.8839C12.6495 16.1183 12.3315 16.25 12 16.25ZM16 16.25C15.6685 16.25 15.3505 16.1183 15.1161 15.8839C14.8817 15.6495 14.75 15.3315 14.75 15C14.75 14.6685 14.8817 14.3505 15.1161 14.1161C15.3505 13.8817 15.6685 13.75 16 13.75C16.3315 13.75 16.6495 13.8817 16.8839 14.1161C17.1183 14.3505 17.25 14.6685 17.25 15C17.25 15.3315 17.1183 15.6495 16.8839 15.8839C16.6495 16.1183 16.3315 16.25 16 16.25ZM20 16.25C19.6685 16.25 19.3505 16.1183 19.1161 15.8839C18.8817 15.6495 18.75 15.3315 18.75 15C18.75 14.6685 18.8817 14.3505 19.1161 14.1161C19.3505 13.8817 19.6685 13.75 20 13.75C20.3315 13.75 20.6495 13.8817 20.8839 14.1161C21.1183 14.3505 21.25 14.6685 21.25 15C21.25 15.3315 21.1183 15.6495 20.8839 15.8839C20.6495 16.1183 20.3315 16.25 20 16.25Z" fill="black"/>
</g>
<defs>
<filter id="filter0_dd_10264_6956" x="0.625901" y="0.750601" width="30.7482" height="30.7482" filterUnits="userSpaceOnUse" color-interpolation-filters="sRGB">
<feFlood flood-opacity="0" result="BackgroundImageFix"/>
<feColorMatrix in="SourceAlpha" type="matrix" values="0 0 0 0 0 0 0 0 0 0 0 0 0 0 0 0 0 0 127 0" result="hardAlpha"/>
<feOffset dy="1.1247"/>
<feGaussianBlur stdDeviation="1.1247"/>
<feColorMatrix type="matrix" values="0 0 0 0 0.0392157 0 0 0 0 0.0496732 0 0 0 0 0.0705882 0 0 0 0.06 0"/>
<feBlend mode="normal" in2="BackgroundImageFix" result="effect1_dropShadow_10264_6956"/>
<feColorMatrix in="SourceAlpha" type="matrix" values="0 0 0 0 0 0 0 0 0 0 0 0 0 0 0 0 0 0 127 0" result="hardAlpha"/>
<feOffset dy="1.1247"/>
<feGaussianBlur stdDeviation="1.68705"/>
<feColorMatrix type="matrix" values="0 0 0 0 0.0392157 0 0 0 0 0.0496732 0 0 0 0 0.0705882 0 0 0 0.1 0"/>
<feBlend mode="normal" in2="effect1_dropShadow_10264_6956" result="effect2_dropShadow_10264_6956"/>
<feBlend mode="normal" in="SourceGraphic" in2="effect2_dropShadow_10264_6956" result="shape"/>
</filter>
</defs>
</svg>
