<svg width="24" height="24" viewBox="0 0 24 24" fill="none" xmlns="http://www.w3.org/2000/svg">
<path d="M20 8H4C3.44772 8 3 8.44772 3 9V11C3 11.5523 3.44772 12 4 12H20C20.5523 12 21 11.5523 21 11V9C21 8.44772 20.5523 8 20 8Z" stroke="#424242" stroke-width="2" stroke-linecap="round" stroke-linejoin="round"/>
<path d="M12 8V21" stroke="#424242" stroke-width="2" stroke-linecap="round" stroke-linejoin="round"/>
<path d="M19 12V19C19 19.5304 18.7893 20.0391 18.4142 20.4142C18.0391 20.7893 17.5304 21 17 21H7C6.46957 21 5.96086 20.7893 5.58579 20.4142C5.21071 20.0391 5 19.5304 5 19V12" stroke="#424242" stroke-width="2" stroke-linecap="round" stroke-linejoin="round"/>
<path d="M7.5 8.00044C6.83696 8.00044 6.20107 7.73705 5.73223 7.2682C5.26339 6.79936 5 6.16348 5 5.50044C5 4.8374 5.26339 4.20151 5.73223 3.73267C6.20107 3.26383 6.83696 3.00044 7.5 3.00044C8.46469 2.98363 9.41003 3.4517 10.2127 4.3436C11.0154 5.2355 11.6383 6.50984 12 8.00044C12.3617 6.50984 12.9846 5.2355 13.7873 4.3436C14.59 3.4517 15.5353 2.98363 16.5 3.00044C17.163 3.00044 17.7989 3.26383 18.2678 3.73267C18.7366 4.20151 19 4.8374 19 5.50044C19 6.16348 18.7366 6.79936 18.2678 7.2682C17.7989 7.73705 17.163 8.00044 16.5 8.00044" stroke="#424242" stroke-width="2" stroke-linecap="round" stroke-linejoin="round"/>
</svg>
