<svg width="18" height="18" viewBox="0 0 18 18" fill="none" xmlns="http://www.w3.org/2000/svg">
<path d="M12.6562 3.75C14.7552 3.75003 16.1562 5.45397 16.1562 7.53125V7.54102C16.1563 8.03245 16.1552 8.68082 15.8682 9.48828C15.5795 10.3003 15.0051 11.2653 13.8701 12.4004C12.0842 14.1864 10.1231 15.619 9.37988 16.1406C9.15102 16.3012 8.85009 16.3012 8.62109 16.1406C7.87775 15.6191 5.91688 14.1865 4.13086 12.4004H4.12988C2.99487 11.2653 2.42047 10.3003 2.13184 9.48828C1.84477 8.68054 1.84374 8.03163 1.84375 7.54004V7.53125C1.84375 5.45396 3.24485 3.75 5.34375 3.75C6.30585 3.75 7.06202 4.19711 7.64844 4.80273C8.01245 5.17867 8.31475 5.61978 8.56445 6.06152L9 6.83105L9.43555 6.06152C9.68527 5.61978 9.98756 5.17867 10.3516 4.80273C10.938 4.1971 11.6942 3.75 12.6562 3.75Z" stroke="#424242"/>
</svg>
