<svg width="24" height="23" viewBox="0 0 24 23" fill="none" xmlns="http://www.w3.org/2000/svg">
<path d="M1.25 11.6534V19.5176C1.25 20.6222 2.14543 21.5176 3.25 21.5176H8.25C8.52614 21.5176 8.75 21.2937 8.75 21.0176V16.4501V15.2676C8.75 13.4727 10.2051 12.0176 12 12.0176C13.7949 12.0176 15.25 13.4727 15.25 15.2676V16.4501V21.0176C15.25 21.2937 15.4739 21.5176 15.75 21.5176H20.75C21.8546 21.5176 22.75 20.6222 22.75 19.5176V11.6534C22.75 10.1444 22.0685 8.71609 20.8954 7.76677L15.1454 3.11334C13.3112 1.62889 10.6888 1.62889 8.85455 3.11334L3.10455 7.76677C1.93153 8.71609 1.25 10.1444 1.25 11.6534Z" stroke="black" stroke-width="2.5" stroke-linecap="round"/>
</svg>
