<svg width="18" height="18" viewBox="0 0 18 18" fill="none" xmlns="http://www.w3.org/2000/svg">
<path d="M15.4873 3.87305L15.7314 4.30859L6.77246 9.3291L6.65039 9.11133L6.52832 8.89258L15.4873 3.87305Z" stroke="#424242" stroke-width="0.5"/>
<path d="M3.71289 4H14.5254C14.874 4 15.1012 4.00045 15.2666 4.01562C15.3511 4.02338 15.3984 4.03405 15.4229 4.04102L15.4414 4.0459C15.4823 4.07578 15.5121 4.11769 15.5273 4.16504L15.5381 4.21484C15.5364 4.19704 15.5474 4.22871 15.4756 4.38086C15.4047 4.53106 15.2893 4.727 15.1123 5.02734L9.52539 14.5088C9.28846 14.9109 9.12768 15.1836 8.99512 15.3691C8.89435 15.5101 8.84238 15.5512 8.83203 15.5596C8.76345 15.5801 8.69001 15.5694 8.63086 15.5293C8.62182 15.5158 8.58562 15.459 8.53223 15.2998C8.45972 15.0836 8.38535 14.7761 8.27637 14.3223L7.12988 9.5459C7.08504 9.35914 7.05034 9.21074 6.99023 9.06934C6.94015 8.95154 6.8775 8.83927 6.80273 8.73535C6.7579 8.67306 6.7079 8.61562 6.65234 8.55664L6.4668 8.36914L3.2334 5.16504C2.90698 4.84158 2.68677 4.62246 2.54199 4.45117C2.43249 4.32162 2.40508 4.26235 2.39941 4.25C2.3959 4.17895 2.42398 4.11041 2.47656 4.0625C2.48986 4.0575 2.55192 4.03536 2.71973 4.02051C2.83143 4.01064 2.96492 4.00551 3.12793 4.00293L3.71289 4Z" stroke="#424242"/>
</svg>
