<svg width="18" height="18" viewBox="0 0 18 18" fill="none" xmlns="http://www.w3.org/2000/svg">
<path d="M8.4375 14.6771V9.3232L3.75 6.60876V11.8329C3.75 11.8713 3.75962 11.9073 3.77887 11.9411C3.79812 11.9747 3.82694 12.0035 3.86531 12.0275L8.4375 14.6771ZM9.5625 14.6771L14.1347 12.0275C14.1731 12.0035 14.2019 11.9747 14.2211 11.9411C14.2404 11.9073 14.25 11.8713 14.25 11.8329V6.60876L9.5625 9.3232V14.6771ZM9 8.35401L13.6313 5.67707L9.11531 3.06501C9.07694 3.04101 9.0385 3.02901 9 3.02901C8.9615 3.02901 8.92306 3.04101 8.88469 3.06501L4.36875 5.67707L9 8.35401ZM3.303 13.0154C3.0895 12.8924 2.92312 12.7281 2.80387 12.5223C2.68462 12.3164 2.625 12.0904 2.625 11.8443V6.15595C2.625 5.90982 2.68462 5.68382 2.80387 5.47795C2.92312 5.2722 3.0895 5.10782 3.303 4.98482L8.32219 2.09582C8.53556 1.9727 8.7615 1.91113 9 1.91113C9.2385 1.91113 9.46444 1.9727 9.67781 2.09582L14.697 4.98482C14.9105 5.10782 15.0769 5.2722 15.1961 5.47795C15.3154 5.68382 15.375 5.90982 15.375 6.15595V11.8443C15.375 12.0904 15.3154 12.3164 15.1961 12.5223C15.0769 12.7281 14.9105 12.8924 14.697 13.0154L9.67781 15.9044C9.46444 16.0276 9.2385 16.0891 9 16.0891C8.7615 16.0891 8.53556 16.0276 8.32219 15.9044L3.303 13.0154Z" fill="#424242"/>
</svg>
