<svg width="17" height="17" viewBox="0 0 17 17" fill="none" xmlns="http://www.w3.org/2000/svg">
<rect x="0.86477" y="0.864831" width="14.4497" height="14.4497" rx="7.22483" fill="black"/>
<rect x="0.86477" y="0.864831" width="14.4497" height="14.4497" rx="7.22483" stroke="white" stroke-width="1.60552"/>
<path d="M8.84219 5.11694L8.0896 5.8319" stroke="white" stroke-width="0.376293" stroke-linecap="round" stroke-linejoin="round"/>
<path d="M5.49335 6.58448L4.4021 6.28345" stroke="white" stroke-width="0.376293" stroke-linecap="round" stroke-linejoin="round"/>
<path d="M5.8319 8.08966L5.11694 8.84225" stroke="white" stroke-width="0.376293" stroke-linecap="round" stroke-linejoin="round"/>
<path d="M6.28345 4.40198L6.58448 5.49323" stroke="white" stroke-width="0.376293" stroke-linecap="round" stroke-linejoin="round"/>
<path d="M6.97462 7.22041C6.96002 7.18604 6.95603 7.14809 6.96316 7.11143C6.97028 7.07478 6.9882 7.04108 7.0146 7.01468C7.04101 6.98827 7.0747 6.97036 7.11136 6.96324C7.14801 6.95611 7.18596 6.9601 7.22033 6.97469L11.3596 8.66801C11.3964 8.68312 11.4275 8.70953 11.4484 8.74344C11.4692 8.77735 11.4788 8.81701 11.4757 8.85671C11.4726 8.8964 11.457 8.9341 11.4311 8.96436C11.4053 8.99462 11.3704 9.01589 11.3317 9.02511L9.69521 9.41683C9.62766 9.43297 9.56588 9.46749 9.51674 9.51657C9.46759 9.56565 9.43299 9.62738 9.41676 9.69491L9.02541 11.3318C9.01629 11.3707 8.99504 11.4056 8.96474 11.4316C8.93444 11.4576 8.89666 11.4733 8.85685 11.4764C8.81705 11.4795 8.77729 11.4698 8.74333 11.4489C8.70937 11.4279 8.68296 11.3966 8.66793 11.3596L6.97462 7.22041Z" stroke="white" stroke-width="0.376293" stroke-linecap="round" stroke-linejoin="round"/>
</svg>
