<svg width="26" height="24" viewBox="0 0 26 24" fill="none" xmlns="http://www.w3.org/2000/svg">
<path d="M8.90963 17.4948L8.30546 17.3034C7.94595 17.1895 7.76289 16.7814 7.90861 16.4263C8.38567 15.2639 8.77455 14.2253 9.11016 13.1978C8.84553 13.1843 8.57401 13.169 8.29445 13.152C7.98652 13.1333 7.73667 12.8885 7.70447 12.5745L7.6302 11.8506C7.58892 11.4482 7.91511 11.1062 8.30952 11.1349C8.79307 11.1701 9.25279 11.2001 9.69393 11.2247C10.0288 9.96708 10.3198 8.62375 10.6253 7.00564C10.7003 6.60835 11.1075 6.37442 11.4767 6.51939L12.1407 6.78016C12.4287 6.89325 12.5951 7.20357 12.5331 7.51281C12.2459 8.94472 11.9701 10.1586 11.6645 11.3002C12.6053 11.3169 13.4883 11.3011 14.3844 11.2496C14.0842 10.1227 13.8123 8.92358 13.5293 7.51281C13.4673 7.20357 13.6337 6.89325 13.9217 6.78016L14.5858 6.51939C14.9549 6.37442 15.3621 6.60835 15.4371 7.00564C15.7314 8.56406 16.0122 9.86759 16.3316 11.0852C16.8347 11.0302 17.3555 10.9645 17.9047 10.8878C18.2775 10.8356 18.6154 11.1222 18.6299 11.5071L18.6541 12.1538C18.6667 12.4882 18.427 12.7777 18.1026 12.8196C17.6779 12.8743 17.2713 12.924 16.8783 12.9686C17.2305 14.0715 17.6413 15.1774 18.1538 16.4263C18.2996 16.7814 18.1165 17.1895 17.757 17.3034L17.1528 17.4948C16.8404 17.5937 16.5051 17.4318 16.3817 17.1219C15.7957 15.6513 15.3347 14.398 14.9402 13.1554C13.6461 13.2547 12.4304 13.2907 11.0865 13.2676C10.6999 14.4736 10.2491 15.6956 9.68078 17.1219C9.55731 17.4318 9.22201 17.5937 8.90963 17.4948Z" fill="#111111"/>
<path d="M23.1995 11.3904C25.4246 17.7412 20.1382 22.4132 17.2169 23.9553C21.835 20.1175 19.9983 14.3345 19.8408 11.3904C19.7059 8.86696 22.045 8.81439 23.1995 11.3904Z" fill="#F0F3FA"/>
<path d="M4.76864 19.2659C-0.800533 15.501 0.657213 8.59157 2.08223 5.60747C0.66362 11.4481 5.58292 14.9896 7.46337 17.2576C9.07519 19.2015 7.22983 20.6424 4.76864 19.2659Z" fill="#F0F3FA"/>
<path d="M3.63176 6.96517C5.43365 0.481143 12.4375 -0.320885 15.7142 0.088605C9.73479 0.589465 7.93864 6.38524 6.38644 8.89012C5.05598 11.0372 3.10752 9.73969 3.63176 6.96517Z" fill="#F0F3FA"/>
<path d="M16.5054 22.4065C10.9642 26.2125 5.08477 22.3161 2.83773 19.8922C7.73916 23.3595 12.8343 20.0769 15.6307 19.1579C18.0276 18.3702 18.6875 20.6189 16.5054 22.4065Z" fill="#F0F3FA"/>
<path d="M15.3253 1.81643C22.0438 1.78919 24.7199 8.32263 25.2181 11.5927C23.1101 5.96492 17.0542 5.81043 14.2258 4.99567C11.8014 4.29731 12.5175 2.06598 15.3253 1.81643Z" fill="#F0F3FA"/>
</svg>
