<svg width="87" height="24" viewBox="0 0 87 24" fill="none" xmlns="http://www.w3.org/2000/svg">
<g clip-path="url(#clip0_10263_6815)">
<path d="M7.98275 17.4948L7.38937 17.3034C7.03628 17.1895 6.85648 16.7814 6.99961 16.4263C7.46815 15.2639 7.85008 14.2253 8.1797 13.1978C7.9198 13.1843 7.65312 13.169 7.37856 13.152C7.07612 13.1333 6.83074 12.8885 6.79911 12.5745L6.72617 11.8506C6.68563 11.4482 7.00599 11.1062 7.39336 11.1349C7.86828 11.1701 8.31978 11.2001 8.75305 11.2247C9.08192 9.96708 9.3677 8.62375 9.66778 7.00564C9.74146 6.60835 10.1414 6.37442 10.5039 6.51939L11.1562 6.78016C11.439 6.89325 11.6024 7.20357 11.5415 7.51281C11.2594 8.94472 10.9886 10.1586 10.6884 11.3002C11.6124 11.3169 12.4796 11.3011 13.3598 11.2496C13.0649 10.1227 12.7979 8.92358 12.52 7.51281C12.459 7.20357 12.6225 6.89325 12.9053 6.78016L13.5575 6.51939C13.9201 6.37442 14.32 6.60835 14.3937 7.00564C14.6827 8.56406 14.9585 9.86759 15.2722 11.0852C15.7663 11.0302 16.2778 10.9645 16.8172 10.8878C17.1834 10.8356 17.5152 11.1222 17.5294 11.5071L17.5532 12.1538C17.5655 12.4882 17.3302 12.7777 17.0116 12.8196C16.5944 12.8743 16.1951 12.924 15.8091 12.9686C16.1551 14.0715 16.5585 15.1774 17.0619 16.4263C17.205 16.7814 17.0252 17.1895 16.6721 17.3034L16.0787 17.4948C15.7719 17.5937 15.4426 17.4318 15.3214 17.1219C14.7459 15.6513 14.2931 14.398 13.9056 13.1554C12.6346 13.2547 11.4406 13.2907 10.1207 13.2676C9.74101 14.4736 9.29828 15.6956 8.74013 17.1219C8.61887 17.4318 8.28955 17.5937 7.98275 17.4948Z" fill="#101828"/>
<path d="M22.0174 11.3904C24.2028 17.7412 19.0108 22.4132 16.1417 23.9553C20.6774 20.1175 18.8734 14.3345 18.7188 11.3904C18.5862 8.86696 20.8835 8.81439 22.0174 11.3904Z" fill="#101828"/>
<path d="M3.91571 19.2659C-1.55402 15.501 -0.122301 8.59157 1.27727 5.60747C-0.116009 11.4481 4.71545 14.9896 6.56232 17.2576C8.14535 19.2015 6.33294 20.6424 3.91571 19.2659Z" fill="#101828"/>
<path d="M2.79913 6.96517C4.56884 0.481143 11.4476 -0.320885 14.6658 0.088605C8.79317 0.589465 7.0291 6.38524 5.50462 8.89012C4.19791 11.0372 2.28425 9.73969 2.79913 6.96517Z" fill="#101828"/>
<path d="M15.4429 22.4065C10.0006 26.2125 4.22619 22.3161 2.01927 19.8922C6.83318 23.3595 11.8373 20.0769 14.5838 19.1579C16.9379 18.3702 17.586 20.6189 15.4429 22.4065Z" fill="#101828"/>
<path d="M14.2838 1.81643C20.8824 1.78919 23.5107 8.32263 24 11.5927C21.9296 5.96492 15.9819 5.81043 13.204 4.99567C10.8229 4.29731 11.5262 2.06598 14.2838 1.81643Z" fill="#101828"/>
<path d="M30.5985 3.22836H32.4668C33.3993 3.22836 34.0408 3.87318 34.0408 4.81891C34.0408 5.75141 33.3795 6.39292 32.4437 6.39292H31.3392V8H30.5985V3.22836ZM31.3392 3.8831V5.74149H32.2717C32.9099 5.74149 33.2836 5.41082 33.2836 4.81891C33.2836 4.21377 32.9232 3.8831 32.2717 3.8831H31.3392ZM36.3357 8.06944C35.2809 8.06944 34.6361 7.3651 34.6361 6.19782C34.6361 5.03715 35.2842 4.32951 36.3357 4.32951C37.384 4.32951 38.0321 5.03715 38.0321 6.19782C38.0321 7.3651 37.3873 8.06944 36.3357 8.06944ZM36.3357 7.43785C36.9508 7.43785 37.3013 6.98152 37.3013 6.19782C37.3013 5.41743 36.9508 4.9611 36.3357 4.9611C35.7174 4.9611 35.3702 5.41743 35.3702 6.19782C35.3702 6.98483 35.7174 7.43785 36.3357 7.43785ZM43.4386 4.39895L42.4499 8H41.7125L40.9685 5.34799H40.9123L40.1716 8H39.4408L38.4487 4.39895H39.1696L39.8144 7.14686H39.8673L40.6081 4.39895H41.2892L42.03 7.14686H42.0862L42.7277 4.39895H43.4386ZM45.512 4.93464C44.9862 4.93464 44.6191 5.305 44.5795 5.86715H46.3982C46.3816 5.30169 46.0377 4.93464 45.512 4.93464ZM46.3949 7.02782H47.0794C46.9173 7.67263 46.342 8.06944 45.5186 8.06944C44.4869 8.06944 43.8553 7.3618 43.8553 6.21105C43.8553 5.0603 44.5001 4.32951 45.5153 4.32951C46.5172 4.32951 47.1223 5.01401 47.1223 6.14491V6.39292H44.5795V6.4326C44.6026 7.06419 44.9697 7.46431 45.5384 7.46431C45.9683 7.46431 46.2626 7.30889 46.3949 7.02782ZM47.9755 8V4.39895H48.66V4.95118H48.7129C48.8154 4.59735 49.2155 4.33943 49.6851 4.33943C49.7909 4.33943 49.9265 4.34935 50.0025 4.36919V5.07022C49.943 5.05038 49.7314 5.02723 49.6057 5.02723C49.0667 5.02723 48.6864 5.36783 48.6864 5.87376V8H47.9755ZM52.0726 4.93464C51.5468 4.93464 51.1797 5.305 51.14 5.86715H52.9588C52.9422 5.30169 52.5983 4.93464 52.0726 4.93464ZM52.9555 7.02782H53.64C53.4779 7.67263 52.9025 8.06944 52.0792 8.06944C51.0475 8.06944 50.4159 7.3618 50.4159 6.21105C50.4159 5.0603 51.0607 4.32951 52.0759 4.32951C53.0778 4.32951 53.6829 5.01401 53.6829 6.14491V6.39292H51.14V6.4326C51.1632 7.06419 51.5302 7.46431 52.099 7.46431C52.5289 7.46431 52.8232 7.30889 52.9555 7.02782ZM55.8522 8.05952C54.9362 8.05952 54.3575 7.33865 54.3575 6.19782C54.3575 5.0603 54.9428 4.33943 55.8522 4.33943C56.3449 4.33943 56.7615 4.57421 56.9566 4.97102H57.0095V2.99358H57.7205V8H57.0393V7.43124H56.9831C56.7681 7.82474 56.3482 8.05952 55.8522 8.05952ZM56.0539 4.97763C55.4554 4.97763 55.0916 5.44058 55.0916 6.19782C55.0916 6.96168 55.452 7.42132 56.0539 7.42132C56.6524 7.42132 57.0228 6.95507 57.0228 6.20113C57.0228 5.4505 56.6491 4.97763 56.0539 4.97763ZM62.5483 8.05952C62.0457 8.05952 61.6258 7.82805 61.4108 7.43124H61.3579V8H60.6734V2.99358H61.3844V4.97102H61.4406C61.6324 4.57751 62.0556 4.33943 62.5483 4.33943C63.461 4.33943 64.0364 5.05369 64.0364 6.19782C64.0364 7.33865 63.4577 8.05952 62.5483 8.05952ZM62.3433 4.97763C61.7481 4.97763 61.3744 5.44719 61.3711 6.20113C61.3744 6.95507 61.7448 7.42132 62.3433 7.42132C62.9451 7.42132 63.3056 6.96168 63.3056 6.19782C63.3056 5.44058 62.9451 4.97763 62.3433 4.97763ZM65.1111 9.30617C65.0515 9.30617 64.8829 9.29955 64.8168 9.28963V8.67788C64.873 8.6878 64.9821 8.69111 65.0482 8.69111C65.3855 8.69111 65.5773 8.55223 65.6997 8.18848L65.7526 8.01323L64.4497 4.39895H65.2235L66.1262 7.25929H66.1825L67.0819 4.39895H67.8358L66.4933 8.1488C66.1858 9.02509 65.8452 9.30617 65.1111 9.30617Z" fill="#A4A7AE"/>
<path d="M35.5004 20L34.9564 18.283H32.4258L31.8717 20H30.3594L32.86 12.7975H34.6319L37.1326 20H35.5004ZM33.6536 14.2949L32.7502 17.12H34.6369L33.7435 14.2949H33.6536ZM38.2157 20V14.4946H39.6233V15.373H39.7131C39.8579 14.824 40.4269 14.4047 41.1257 14.4047C41.3253 14.4047 41.5699 14.4297 41.6947 14.4746V15.7973C41.5799 15.7524 41.2405 15.7075 41.0059 15.7075C40.2122 15.7075 39.6682 16.1766 39.6682 16.9503V20H38.2157ZM44.5547 18.9918C45.2285 18.9918 45.7376 18.5625 45.7376 18.0035V17.5992L44.6246 17.6691C44.0007 17.714 43.6962 17.9386 43.6962 18.3329C43.6962 18.7422 44.0506 18.9918 44.5547 18.9918ZM44.0755 20.0849C43.0174 20.0849 42.2737 19.436 42.2737 18.4277C42.2737 17.4295 43.0373 16.8505 44.4049 16.7706L45.7376 16.6908V16.2415C45.7376 15.7823 45.4082 15.5228 44.8092 15.5228C44.2852 15.5228 43.9358 15.7025 43.816 16.0319H42.4783C42.5731 15.0137 43.5065 14.3748 44.8891 14.3748C46.3466 14.3748 47.1701 15.0636 47.1701 16.2415V20H45.7626V19.2812H45.6727C45.3882 19.7854 44.7893 20.0849 44.0755 20.0849ZM49.0119 13.1868H50.4644V14.5495H51.6074V15.6925H50.4644V18.1682C50.4644 18.6474 50.684 18.867 51.1782 18.867C51.3678 18.867 51.4677 18.862 51.6074 18.847V19.9551C51.4277 19.99 51.1582 20.02 50.8787 20.02C49.541 20.02 49.0119 19.5857 49.0119 18.5126V15.6925H48.1534V14.5495H49.0119V13.1868ZM53.2845 13.1868H54.737V14.5495H55.88V15.6925H54.737V18.1682C54.737 18.6474 54.9566 18.867 55.4507 18.867C55.6404 18.867 55.7402 18.862 55.88 18.847V19.9551C55.7003 19.99 55.4308 20.02 55.1513 20.02C53.8136 20.02 53.2845 19.5857 53.2845 18.5126V15.6925H52.426V14.5495H53.2845V13.1868ZM59.0794 18.9918C59.7533 18.9918 60.2624 18.5625 60.2624 18.0035V17.5992L59.1493 17.6691C58.5254 17.714 58.2209 17.9386 58.2209 18.3329C58.2209 18.7422 58.5753 18.9918 59.0794 18.9918ZM58.6003 20.0849C57.5421 20.0849 56.7984 19.436 56.7984 18.4277C56.7984 17.4295 57.5621 16.8505 58.9297 16.7706L60.2624 16.6908V16.2415C60.2624 15.7823 59.9329 15.5228 59.334 15.5228C58.8099 15.5228 58.4605 15.7025 58.3407 16.0319H57.003C57.0979 15.0137 58.0312 14.3748 59.4138 14.3748C60.8713 14.3748 61.6949 15.0636 61.6949 16.2415V20H60.2873V19.2812H60.1975C59.913 19.7854 59.314 20.0849 58.6003 20.0849ZM67.9789 18.6873V20H63.2671V12.7975H64.7745V18.6873H67.9789ZM71.1884 18.9918C71.8622 18.9918 72.3713 18.5625 72.3713 18.0035V17.5992L71.2582 17.6691C70.6343 17.714 70.3299 17.9386 70.3299 18.3329C70.3299 18.7422 70.6842 18.9918 71.1884 18.9918ZM70.7092 20.0849C69.651 20.0849 68.9073 19.436 68.9073 18.4277C68.9073 17.4295 69.671 16.8505 71.0386 16.7706L72.3713 16.6908V16.2415C72.3713 15.7823 72.0419 15.5228 71.4429 15.5228C70.9188 15.5228 70.5694 15.7025 70.4497 16.0319H69.112C69.2068 15.0137 70.1402 14.3748 71.5228 14.3748C72.9803 14.3748 73.8038 15.0636 73.8038 16.2415V20H72.3963V19.2812H72.3064C72.0219 19.7854 71.423 20.0849 70.7092 20.0849ZM78.4757 20.0849C77.697 20.0849 77.0731 19.7355 76.7786 19.1365H76.6888V20H75.2813V12.3932H76.7337V15.373H76.8236C77.1031 14.7691 77.722 14.4047 78.4757 14.4047C79.8683 14.4047 80.7068 15.4679 80.7068 17.2448C80.7068 19.0117 79.8583 20.0849 78.4757 20.0849ZM77.9716 15.6226C77.2079 15.6226 76.7237 16.2465 76.7188 17.2498C76.7237 18.248 77.2029 18.872 77.9716 18.872C78.7452 18.872 79.2144 18.253 79.2144 17.2448C79.2144 16.2415 78.7402 15.6226 77.9716 15.6226ZM81.765 16.1118C81.765 15.0686 82.6834 14.3748 84.056 14.3748C85.4536 14.3748 86.2771 14.9588 86.357 16.0119H85.0143C84.9395 15.6576 84.605 15.4379 84.066 15.4379C83.5469 15.4379 83.1625 15.6725 83.1625 16.0219C83.1625 16.2914 83.3971 16.4562 83.9063 16.571L84.9395 16.7956C86.0076 17.0302 86.4868 17.4794 86.4868 18.303C86.4868 19.401 85.5035 20.1198 84.061 20.1198C82.6085 20.1198 81.73 19.5258 81.6302 18.4677H83.0477C83.1576 18.842 83.5119 19.0566 84.0909 19.0566C84.6549 19.0566 85.0443 18.822 85.0443 18.4677C85.0443 18.1981 84.8346 18.0334 84.3505 17.9286L83.3522 17.704C82.2841 17.4694 81.765 16.9603 81.765 16.1118Z" fill="#101828"/>
</g>
<defs>
<clipPath id="clip0_10263_6815">
<rect width="87" height="24" rx="5" fill="white"/>
</clipPath>
</defs>
</svg>
