<svg width="75" height="20" viewBox="0 0 75 20" fill="none" xmlns="http://www.w3.org/2000/svg">
<g filter="url(#filter0_dd_10251_8219)">
<path d="M2 3H65.3216C68.6353 3 71.3216 5.68629 71.3216 9V9C71.3216 12.3137 68.6353 15 65.3216 15H2V3Z" fill="#778DA9"/>
<path d="M12.0844 9.09088L12.0797 8.59634C12.0797 6.82588 13.1495 6.37405 14.3276 6.37405C15.5341 6.37405 16.5735 6.84499 16.5735 8.57431V11.3842C16.5718 11.449 16.5447 11.5106 16.498 11.5556C16.4513 11.6007 16.3888 11.6256 16.324 11.625H15.6674C15.602 11.6259 15.5389 11.6008 15.4919 11.5553C15.4449 11.5098 15.4179 11.4476 15.4167 11.3822V8.54014C15.4167 7.54656 14.8894 7.25209 14.313 7.25209C13.6517 7.25209 13.2365 7.60029 13.2365 8.54014V9.09066" fill="white"/>
<path d="M14.9447 8.92049H13.7497C13.6346 8.92049 13.5413 9.01378 13.5413 9.12887V9.3885C13.5413 9.50359 13.6346 9.59688 13.7497 9.59688H14.9447C15.0597 9.59688 15.153 9.50359 15.153 9.3885V9.12887C15.153 9.01378 15.0597 8.92049 14.9447 8.92049Z" fill="white"/>
<path d="M12.0844 9.09088L12.0797 8.59634C12.0797 6.82588 13.1495 6.37405 14.3276 6.37405C15.5341 6.37405 16.5735 6.84499 16.5735 8.57431V11.3842C16.5718 11.449 16.5447 11.5106 16.498 11.5556C16.4513 11.6007 16.3888 11.6256 16.324 11.625H15.6674C15.602 11.6259 15.5389 11.6008 15.4919 11.5553C15.4449 11.5098 15.4179 11.4476 15.4167 11.3822V8.54014C15.4167 7.54656 14.8894 7.25209 14.313 7.25209C13.6517 7.25209 13.2365 7.60029 13.2365 8.54014V9.09066L13.2419 9.40402C13.2419 11.1747 12.1721 11.6259 10.994 11.6259C9.78773 11.6259 8.74829 11.1538 8.74829 9.42537V6.61706C8.74953 6.55175 8.77656 6.48959 8.82348 6.44414C8.8704 6.3987 8.9334 6.37366 8.99871 6.37451H9.65487C9.72023 6.37366 9.78325 6.39873 9.83018 6.44422C9.8771 6.48971 9.90411 6.55193 9.90529 6.61728V9.46022C9.90529 10.4538 10.4327 10.7483 11.009 10.7483C11.6704 10.7483 12.0855 10.4001 12.0855 9.46022L12.0844 9.09088Z" fill="white"/>
<path d="M22.9889 11.6114C22.5991 11.6114 22.258 11.5371 21.9656 11.3886C21.6779 11.2355 21.4552 11.0197 21.2974 10.7413C21.1443 10.4629 21.0677 10.1334 21.0677 9.75286V6.55094H21.8195V9.75286C21.8195 10.1287 21.9215 10.4188 22.1257 10.623C22.3299 10.8225 22.6176 10.9223 22.9889 10.9223C23.3601 10.9223 23.6478 10.8225 23.852 10.623C24.0562 10.4188 24.1583 10.1287 24.1583 9.75286V6.55094H24.91V9.75286C24.91 10.1334 24.8311 10.4629 24.6733 10.7413C24.5202 11.0197 24.2998 11.2355 24.0121 11.3886C23.7244 11.5371 23.3833 11.6114 22.9889 11.6114ZM25.9286 11.5V7.7969H26.6038L26.6316 8.78532L26.5412 8.7366C26.5829 8.49529 26.6618 8.30039 26.7778 8.1519C26.8938 8.0034 27.0354 7.89435 27.2024 7.82475C27.3695 7.7505 27.5505 7.71338 27.7454 7.71338C28.0238 7.71338 28.2535 7.77602 28.4345 7.90131C28.6201 8.02197 28.7593 8.18902 28.8521 8.40249C28.9496 8.61131 28.9983 8.85029 28.9983 9.11944V11.5H28.2604V9.34218C28.2604 9.12408 28.2372 8.94078 28.1908 8.79228C28.1444 8.64379 28.0679 8.5301 27.9611 8.45121C27.8544 8.37232 27.7152 8.33288 27.5435 8.33288C27.2836 8.33288 27.0725 8.41873 26.9101 8.59042C26.7477 8.76212 26.6664 9.01271 26.6664 9.34218V11.5H25.9286ZM29.9732 11.5V7.7969H30.711V11.5H29.9732ZM29.9592 7.26093V6.52309H30.7249V7.26093H29.9592ZM32.6676 11.5L31.3172 7.7969H32.1038L33.1131 10.7482L34.1224 7.7969H34.9159L33.5586 11.5H32.6676ZM36.9152 11.5835C36.5533 11.5835 36.24 11.5046 35.9755 11.3469C35.7157 11.1891 35.5138 10.964 35.3699 10.6717C35.2307 10.3793 35.1611 10.0383 35.1611 9.64845C35.1611 9.25865 35.2307 8.9199 35.3699 8.63219C35.5138 8.33984 35.7157 8.11478 35.9755 7.957C36.2354 7.79458 36.5417 7.71338 36.8943 7.71338C37.2284 7.71338 37.5231 7.79226 37.7783 7.95004C38.0336 8.10317 38.2308 8.32592 38.37 8.61827C38.5139 8.91062 38.5858 9.26329 38.5858 9.67629V9.86423H35.9268C35.9454 10.2262 36.0405 10.4977 36.2122 10.6786C36.3885 10.8596 36.6252 10.9501 36.9222 10.9501C37.1403 10.9501 37.3213 10.8991 37.4651 10.797C37.609 10.6949 37.7087 10.558 37.7644 10.3863L38.5301 10.435C38.4326 10.7784 38.2401 11.0568 37.9524 11.2703C37.6693 11.4791 37.3236 11.5835 36.9152 11.5835ZM35.9268 9.30738H37.8062C37.783 8.9779 37.6879 8.73428 37.5208 8.5765C37.3584 8.41873 37.1496 8.33984 36.8943 8.33984C36.6298 8.33984 36.4117 8.42337 36.24 8.59042C36.073 8.75284 35.9686 8.99183 35.9268 9.30738ZM39.3334 11.5V7.7969H40.0086L40.0364 8.77836L39.9738 8.75748C40.0248 8.42337 40.1269 8.17974 40.2801 8.02661C40.4378 7.87347 40.649 7.7969 40.9135 7.7969H41.2685V8.45817H40.9135C40.7279 8.45817 40.5724 8.48833 40.4471 8.54866C40.3218 8.60899 40.2267 8.7018 40.1617 8.82709C40.1014 8.95238 40.0712 9.1148 40.0712 9.31434V11.5H39.3334ZM43.2211 11.5835C42.873 11.5835 42.5784 11.5302 42.3371 11.4234C42.1004 11.3167 41.9171 11.1705 41.7872 10.9849C41.6572 10.7946 41.583 10.5765 41.5644 10.3306L42.3231 10.2958C42.3603 10.5 42.4484 10.6624 42.5876 10.783C42.7269 10.9037 42.938 10.964 43.2211 10.964C43.4531 10.964 43.6364 10.9269 43.771 10.8527C43.9055 10.7784 43.9728 10.6601 43.9728 10.4977C43.9728 10.4095 43.9496 10.3352 43.9032 10.2749C43.8615 10.2099 43.7779 10.1566 43.6526 10.1148C43.5273 10.0684 43.3417 10.0243 43.0958 9.98257C42.7292 9.91296 42.4415 9.83175 42.2327 9.73894C42.0238 9.64613 41.8753 9.5278 41.7872 9.38394C41.699 9.24009 41.6549 9.06607 41.6549 8.86189C41.6549 8.52314 41.7802 8.24703 42.0308 8.03357C42.286 7.82011 42.6526 7.71338 43.1306 7.71338C43.4508 7.71338 43.7199 7.76906 43.938 7.88043C44.1561 7.98716 44.3255 8.13334 44.4462 8.31896C44.5714 8.49994 44.6503 8.70412 44.6828 8.9315L43.9241 8.97326C43.9009 8.84333 43.8545 8.73196 43.7849 8.63915C43.7199 8.5417 43.6318 8.46745 43.5204 8.41641C43.409 8.36072 43.2768 8.33288 43.1236 8.33288C42.887 8.33288 42.7106 8.37928 42.5946 8.47209C42.4786 8.5649 42.4206 8.68555 42.4206 8.83405C42.4206 8.94542 42.4461 9.03591 42.4972 9.10552C42.5528 9.17512 42.641 9.23313 42.7617 9.27953C42.8823 9.3213 43.0424 9.35842 43.242 9.39091C43.6271 9.45587 43.9287 9.53708 44.1468 9.63453C44.3649 9.72734 44.5181 9.84335 44.6063 9.98257C44.6944 10.1218 44.7385 10.2912 44.7385 10.4907C44.7385 10.7227 44.6735 10.9199 44.5436 11.0824C44.4137 11.2448 44.235 11.3701 44.0076 11.4582C43.7802 11.5418 43.5181 11.5835 43.2211 11.5835ZM46.5971 11.5835C46.212 11.5835 45.9034 11.4954 45.6714 11.319C45.444 11.1427 45.3303 10.8944 45.3303 10.5742C45.3303 10.254 45.4254 10.0058 45.6157 9.82943C45.8106 9.64845 46.1099 9.51852 46.5136 9.43963L47.7874 9.19601C47.7874 8.9083 47.7201 8.69483 47.5855 8.55562C47.451 8.41177 47.2514 8.33984 46.9869 8.33984C46.7503 8.33984 46.5646 8.3932 46.4301 8.49994C46.2955 8.60203 46.2027 8.75516 46.1516 8.95934L45.3929 8.91062C45.4625 8.53938 45.6342 8.24703 45.908 8.03357C46.1864 7.82011 46.5461 7.71338 46.9869 7.71338C47.4881 7.71338 47.8686 7.84795 48.1285 8.1171C48.393 8.3816 48.5252 8.75516 48.5252 9.23777V10.6786C48.5252 10.7668 48.5392 10.8295 48.567 10.8666C48.5995 10.8991 48.6505 10.9153 48.7201 10.9153H48.8524V11.5C48.8292 11.5046 48.7921 11.5093 48.741 11.5139C48.69 11.5186 48.6366 11.5209 48.5809 11.5209C48.4231 11.5209 48.2863 11.4954 48.1702 11.4443C48.0589 11.3933 47.9753 11.3097 47.9197 11.1937C47.864 11.0731 47.8361 10.913 47.8361 10.7134L47.9127 10.7482C47.8756 10.9107 47.7944 11.0545 47.6691 11.1798C47.5484 11.3051 47.393 11.4049 47.2027 11.4791C47.0171 11.5487 46.8152 11.5835 46.5971 11.5835ZM46.7155 10.9988C46.9382 10.9988 47.1285 10.9571 47.2862 10.8735C47.444 10.7854 47.567 10.6647 47.6552 10.5116C47.7433 10.3584 47.7874 10.1844 47.7874 9.98953V9.75286L46.7015 9.96168C46.4788 10.0034 46.321 10.0707 46.2282 10.1635C46.14 10.2517 46.096 10.3654 46.096 10.5046C46.096 10.6624 46.1493 10.7854 46.256 10.8735C46.3674 10.9571 46.5206 10.9988 46.7155 10.9988ZM50.2352 11.5C49.9939 11.5 49.799 11.4374 49.6505 11.3121C49.502 11.1868 49.4278 10.9872 49.4278 10.7134V6.5579H50.1656V10.6438C50.1656 10.7274 50.1865 10.79 50.2283 10.8318C50.2747 10.8735 50.3396 10.8944 50.4232 10.8944H50.7155V11.5H50.2352ZM51.0094 11.5L52.7914 6.5579H53.745L55.5269 11.5H54.7265L54.274 10.2123H52.2554L51.8099 11.5H51.0094ZM52.4921 9.53012H54.0443L53.2647 7.27485L52.4921 9.53012ZM56.1184 11.5V6.5579H57.7054C58.4804 6.5579 59.0767 6.77368 59.4943 7.20524C59.912 7.63217 60.1208 8.24239 60.1208 9.03591C60.1208 9.82479 59.9143 10.4327 59.5013 10.8596C59.0929 11.2865 58.5082 11.5 57.7472 11.5H56.1184ZM56.8701 10.8109H57.7054C58.253 10.8109 58.6614 10.6647 58.9305 10.3724C59.2043 10.0754 59.3412 9.62989 59.3412 9.03591C59.3412 8.43265 59.2043 7.98484 58.9305 7.69249C58.6614 7.3955 58.253 7.24701 57.7054 7.24701H56.8701V10.8109ZM62.4582 11.5835C62.1101 11.5835 61.8155 11.5302 61.5742 11.4234C61.3375 11.3167 61.1542 11.1705 61.0243 10.9849C60.8943 10.7946 60.8201 10.5765 60.8015 10.3306L61.5603 10.2958C61.5974 10.5 61.6855 10.6624 61.8248 10.783C61.964 10.9037 62.1751 10.964 62.4582 10.964C62.6902 10.964 62.8735 10.9269 63.0081 10.8527C63.1427 10.7784 63.2099 10.6601 63.2099 10.4977C63.2099 10.4095 63.1867 10.3352 63.1403 10.2749C63.0986 10.2099 63.015 10.1566 62.8897 10.1148C62.7645 10.0684 62.5788 10.0243 62.3329 9.98257C61.9663 9.91296 61.6786 9.83175 61.4698 9.73894C61.2609 9.64613 61.1124 9.5278 61.0243 9.38394C60.9361 9.24009 60.892 9.06607 60.892 8.86189C60.892 8.52314 61.0173 8.24703 61.2679 8.03357C61.5231 7.82011 61.8897 7.71338 62.3677 7.71338C62.6879 7.71338 62.957 7.76906 63.1751 7.88043C63.3932 7.98716 63.5626 8.13334 63.6833 8.31896C63.8086 8.49994 63.8874 8.70412 63.9199 8.9315L63.1612 8.97326C63.138 8.84333 63.0916 8.73196 63.022 8.63915C62.957 8.5417 62.8689 8.46745 62.7575 8.41641C62.6461 8.36072 62.5139 8.33288 62.3607 8.33288C62.1241 8.33288 61.9477 8.37928 61.8317 8.47209C61.7157 8.5649 61.6577 8.68555 61.6577 8.83405C61.6577 8.94542 61.6832 9.03591 61.7343 9.10552C61.79 9.17512 61.8781 9.23313 61.9988 9.27953C62.1194 9.3213 62.2795 9.35842 62.4791 9.39091C62.8642 9.45587 63.1659 9.53708 63.384 9.63453C63.6021 9.72734 63.7552 9.84335 63.8434 9.98257C63.9315 10.1218 63.9756 10.2912 63.9756 10.4907C63.9756 10.7227 63.9107 10.9199 63.7807 11.0824C63.6508 11.2448 63.4721 11.3701 63.2447 11.4582C63.0174 11.5418 62.7552 11.5835 62.4582 11.5835Z" fill="white"/>
</g>
<defs>
<filter id="filter0_dd_10251_8219" x="-1.3741" y="0.750601" width="76.0697" height="18.7482" filterUnits="userSpaceOnUse" color-interpolation-filters="sRGB">
<feFlood flood-opacity="0" result="BackgroundImageFix"/>
<feColorMatrix in="SourceAlpha" type="matrix" values="0 0 0 0 0 0 0 0 0 0 0 0 0 0 0 0 0 0 127 0" result="hardAlpha"/>
<feOffset dy="1.1247"/>
<feGaussianBlur stdDeviation="1.1247"/>
<feColorMatrix type="matrix" values="0 0 0 0 0.0392157 0 0 0 0 0.0496732 0 0 0 0 0.0705882 0 0 0 0.06 0"/>
<feBlend mode="normal" in2="BackgroundImageFix" result="effect1_dropShadow_10251_8219"/>
<feColorMatrix in="SourceAlpha" type="matrix" values="0 0 0 0 0 0 0 0 0 0 0 0 0 0 0 0 0 0 127 0" result="hardAlpha"/>
<feOffset dy="1.1247"/>
<feGaussianBlur stdDeviation="1.68705"/>
<feColorMatrix type="matrix" values="0 0 0 0 0.0392157 0 0 0 0 0.0496732 0 0 0 0 0.0705882 0 0 0 0.1 0"/>
<feBlend mode="normal" in2="effect1_dropShadow_10251_8219" result="effect2_dropShadow_10251_8219"/>
<feBlend mode="normal" in="SourceGraphic" in2="effect2_dropShadow_10251_8219" result="shape"/>
</filter>
</defs>
</svg>
