<svg width="936" height="936" viewBox="0 0 936 936" fill="none" xmlns="http://www.w3.org/2000/svg">
<g clip-path="url(#clip0_7035_3608)">
<path d="M935.43 0H0V935.43H935.43V0Z" fill="url(#paint0_linear_7035_3608)"/>
<path d="M428.226 474.52V474.302L427.898 440.026C427.898 317.316 502.045 286 583.7 286C667.319 286 739.362 318.641 739.362 438.499V633.251C739.244 637.745 737.365 642.012 734.13 645.134C730.895 648.255 726.563 649.98 722.068 649.938H676.558C672.026 650 667.654 648.265 664.398 645.111C661.142 641.958 659.268 637.643 659.186 633.111V436.131C659.186 367.266 622.635 346.856 582.688 346.856C536.851 346.856 508.074 370.99 508.074 436.131V474.287" fill="#F2F2F2"/>
<path d="M626.468 462.492H543.644C535.667 462.492 529.201 468.958 529.201 476.935V494.93C529.201 502.907 535.667 509.373 543.644 509.373H626.468C634.445 509.373 640.911 502.907 640.911 494.93V476.935C640.911 468.958 634.445 462.492 626.468 462.492Z" fill="white"/>
<path d="M508.059 441.677V441.942L508.448 496.005C508.448 618.731 434.302 650 352.646 650C269.043 650 197 617.282 197 497.486V302.842C197.086 298.316 198.96 294.007 202.212 290.858C205.463 287.708 209.83 285.973 214.356 286.031H259.835C264.364 285.973 268.733 287.71 271.985 290.863C275.238 294.016 277.109 298.329 277.191 302.858V499.901C277.191 568.765 313.742 589.175 353.69 589.175C399.527 589.175 428.304 565.041 428.304 499.901V441.958" fill="#F2F2F2"/>
</g>
<defs>
<linearGradient id="paint0_linear_7035_3608" x1="-22.84" y1="727.45" x2="943.09" y2="216.02" gradientUnits="userSpaceOnUse">
<stop stop-color="#E0E1DD"/>
<stop offset="0.35" stop-color="#BFC6CC"/>
<stop offset="1" stop-color="#778DA9"/>
</linearGradient>
<clipPath id="clip0_7035_3608">
<rect width="935.43" height="935.43" rx="467.715" fill="white"/>
</clipPath>
</defs>
</svg>
