<svg width="11" height="12" viewBox="0 0 11 12" fill="none" xmlns="http://www.w3.org/2000/svg">
<path d="M9.99818 2.26472L6.50182 0.266408C5.8827 -0.0888027 5.1173 -0.0888027 4.49818 0.266408L1.00182 2.26472C0.382696 2.61993 0 3.27479 0 3.98322V7.98183C0 8.69026 0.382696 9.34512 1.00182 9.70033L4.49818 11.7006C5.1173 12.0558 5.8827 12.0558 6.50182 11.7006L9.99818 9.70033C10.6173 9.34512 11 8.69026 11 7.98183V3.98322C11 3.27479 10.6193 2.61993 9.99818 2.26472ZM8.27505 6.3804L7.23516 8.16439C7.0929 8.41046 6.82841 8.56128 6.54189 8.56128H4.46011C4.17359 8.56128 3.90911 8.41046 3.76685 8.16439L2.72495 6.3804C2.5827 6.13433 2.5827 5.8327 2.72495 5.58663L3.76485 3.80264C3.9071 3.55657 4.17158 3.40576 4.45811 3.40576H6.53789C6.82441 3.40576 7.08889 3.55657 7.23115 3.80264L8.27104 5.58663C8.4173 5.8327 8.4173 6.13433 8.27505 6.3804Z" fill="#FD1669"/>
</svg>
